<mxfile host="65bd71144e" pages="1">
    <diagram id="4aA8682Oxr7YlsX3xrEW" name="Page-1">
        <mxGraphModel dx="568" dy="485" grid="1" gridSize="10" guides="1" tooltips="1" connect="1" arrows="1" fold="1" page="1" pageScale="1" pageWidth="827" pageHeight="1169" math="0" shadow="0">
            <root>
                <mxCell id="0"/>
                <mxCell id="1" parent="0"/>
                <mxCell id="4" style="edgeStyle=orthogonalEdgeStyle;html=1;exitX=0.5;exitY=1;exitDx=0;exitDy=0;entryX=0.5;entryY=0;entryDx=0;entryDy=0;entryPerimeter=0;fontColor=#23A8D4;strokeColor=#23A8D4;curved=1;" edge="1" parent="1" source="asYjwT--wiLLLTKxJUm1-8" target="2">
                    <mxGeometry relative="1" as="geometry"/>
                </mxCell>
                <mxCell id="asYjwT--wiLLLTKxJUm1-8" value="" style="rounded=0;whiteSpace=wrap;html=1;strokeColor=#23A8D4;fillColor=none;gradientColor=none;strokeWidth=2;" parent="1" vertex="1">
                    <mxGeometry x="40" y="40" width="440" height="200" as="geometry"/>
                </mxCell>
                <mxCell id="asYjwT--wiLLLTKxJUm1-3" value="" style="outlineConnect=0;fontColor=#232F3E;gradientColor=none;fillColor=#23A8D4;strokeColor=none;dashed=0;verticalLabelPosition=bottom;verticalAlign=top;align=center;html=1;fontSize=12;fontStyle=0;aspect=fixed;pointerEvents=1;shape=mxgraph.aws4.network_access_control_list;" parent="1" vertex="1">
                    <mxGeometry x="260" y="120" width="40" height="40" as="geometry"/>
                </mxCell>
                <mxCell id="asYjwT--wiLLLTKxJUm1-4" value="" style="outlineConnect=0;fontColor=#232F3E;gradientColor=none;gradientDirection=north;fillColor=#23A8D4;strokeColor=#ffffff;dashed=0;verticalLabelPosition=bottom;verticalAlign=top;align=center;html=1;fontSize=12;fontStyle=0;aspect=fixed;shape=mxgraph.aws4.resourceIcon;resIcon=mxgraph.aws4.vpc;" parent="1" vertex="1">
                    <mxGeometry x="40" y="40" width="40" height="40" as="geometry"/>
                </mxCell>
                <mxCell id="asYjwT--wiLLLTKxJUm1-9" value="" style="outlineConnect=0;fontColor=#232F3E;gradientColor=none;fillColor=#23A8D4;strokeColor=none;dashed=0;verticalLabelPosition=bottom;verticalAlign=top;align=center;html=1;fontSize=12;fontStyle=0;aspect=fixed;pointerEvents=1;shape=mxgraph.aws4.route_table;" parent="1" vertex="1">
                    <mxGeometry x="160" y="120" width="41.05" height="40" as="geometry"/>
                </mxCell>
                <mxCell id="asYjwT--wiLLLTKxJUm1-11" value="" style="outlineConnect=0;dashed=0;verticalLabelPosition=bottom;verticalAlign=top;align=center;html=1;shape=mxgraph.aws3.router;fillColor=#23A8D4;gradientColor=none;strokeColor=#767171;" parent="1" vertex="1">
                    <mxGeometry x="80" y="120" width="40" height="40" as="geometry"/>
                </mxCell>
                <mxCell id="asYjwT--wiLLLTKxJUm1-12" value="" style="endArrow=none;html=1;entryX=1;entryY=0.5;entryDx=0;entryDy=0;entryPerimeter=0;strokeColor=#23A8D4;strokeWidth=2;" parent="1" source="asYjwT--wiLLLTKxJUm1-9" target="asYjwT--wiLLLTKxJUm1-11" edge="1">
                    <mxGeometry width="50" height="50" relative="1" as="geometry">
                        <mxPoint x="100" y="370" as="sourcePoint"/>
                        <mxPoint x="150" y="320" as="targetPoint"/>
                    </mxGeometry>
                </mxCell>
                <mxCell id="asYjwT--wiLLLTKxJUm1-13" value="vpc" style="text;html=1;resizable=0;autosize=1;align=center;verticalAlign=middle;points=[];fillColor=none;strokeColor=none;rounded=0;fontColor=#23A8D4;fontStyle=1" parent="1" vertex="1">
                    <mxGeometry x="85" y="50" width="30" height="20" as="geometry"/>
                </mxCell>
                <mxCell id="asYjwT--wiLLLTKxJUm1-14" value="router" style="text;html=1;resizable=0;autosize=1;align=center;verticalAlign=middle;points=[];fillColor=none;strokeColor=none;rounded=0;fontColor=#23A8D4;fontStyle=1" parent="1" vertex="1">
                    <mxGeometry x="75" y="173" width="50" height="20" as="geometry"/>
                </mxCell>
                <mxCell id="asYjwT--wiLLLTKxJUm1-15" value="route table" style="text;html=1;resizable=0;autosize=1;align=center;verticalAlign=middle;points=[];fillColor=none;strokeColor=none;rounded=0;fontColor=#23A8D4;fontStyle=1" parent="1" vertex="1">
                    <mxGeometry x="145.5" y="173" width="70" height="20" as="geometry"/>
                </mxCell>
                <mxCell id="asYjwT--wiLLLTKxJUm1-16" value="" style="endArrow=none;html=1;strokeColor=#767171;fontColor=#767171;fontSize=27;spacing=7;strokeWidth=2;" parent="1" edge="1">
                    <mxGeometry width="50" height="50" relative="1" as="geometry">
                        <mxPoint x="521" y="79.5" as="sourcePoint"/>
                        <mxPoint x="561" y="79.5" as="targetPoint"/>
                    </mxGeometry>
                </mxCell>
                <mxCell id="asYjwT--wiLLLTKxJUm1-17" value="" style="endArrow=none;html=1;strokeColor=#23A8D4;fontColor=#767171;fontSize=27;spacing=7;strokeWidth=2;" parent="1" edge="1">
                    <mxGeometry width="50" height="50" relative="1" as="geometry">
                        <mxPoint x="521" y="120" as="sourcePoint"/>
                        <mxPoint x="561" y="120" as="targetPoint"/>
                    </mxGeometry>
                </mxCell>
                <mxCell id="asYjwT--wiLLLTKxJUm1-18" value="&lt;font style=&quot;font-size: 12px&quot;&gt;Preexisting resources&lt;/font&gt;" style="text;html=1;resizable=0;autosize=1;align=center;verticalAlign=middle;points=[];fillColor=none;strokeColor=none;rounded=0;fontSize=12;fontColor=#767171;fontStyle=1" parent="1" vertex="1">
                    <mxGeometry x="570" y="65" width="130" height="20" as="geometry"/>
                </mxCell>
                <mxCell id="asYjwT--wiLLLTKxJUm1-19" value="&lt;font style=&quot;font-size: 12px&quot;&gt;Module resources&lt;/font&gt;" style="text;html=1;resizable=0;autosize=1;align=center;verticalAlign=middle;points=[];fillColor=none;strokeColor=none;rounded=0;fontSize=12;fontColor=#23A8D4;fontStyle=1" parent="1" vertex="1">
                    <mxGeometry x="568" y="106" width="110" height="20" as="geometry"/>
                </mxCell>
                <mxCell id="asYjwT--wiLLLTKxJUm1-20" value="default access &lt;br&gt;control list" style="text;html=1;resizable=0;autosize=1;align=center;verticalAlign=middle;points=[];fillColor=none;strokeColor=none;rounded=0;fontColor=#23A8D4;fontStyle=1" parent="1" vertex="1">
                    <mxGeometry x="227" y="168" width="100" height="30" as="geometry"/>
                </mxCell>
                <mxCell id="XDlZlyK3lKeZrfhb8R-Y-4" value="" style="rounded=1;whiteSpace=wrap;html=1;strokeColor=#23A8D4;fillColor=none;fontColor=#000000;" parent="1" vertex="1">
                    <mxGeometry x="340" y="100" width="120" height="60" as="geometry"/>
                </mxCell>
                <mxCell id="XDlZlyK3lKeZrfhb8R-Y-5" value="" style="pointerEvents=1;shadow=0;dashed=0;html=1;strokeColor=none;fillColor=#23A8D4;labelPosition=center;verticalLabelPosition=bottom;verticalAlign=top;outlineConnect=0;align=center;shape=mxgraph.office.security.lock_protected;fontColor=#000000;aspect=fixed;" parent="1" vertex="1">
                    <mxGeometry x="350" y="85" width="19" height="25.97" as="geometry"/>
                </mxCell>
                <mxCell id="XDlZlyK3lKeZrfhb8R-Y-6" value="default &lt;br&gt;security group" style="text;html=1;resizable=0;autosize=1;align=center;verticalAlign=middle;points=[];fillColor=none;strokeColor=none;rounded=0;fontColor=#23A8D4;fontStyle=1" parent="1" vertex="1">
                    <mxGeometry x="355" y="168" width="90" height="30" as="geometry"/>
                </mxCell>
                <mxCell id="2" value="" style="points=[[0,0,0],[0.25,0,0],[0.5,0,0],[0.75,0,0],[1,0,0],[0,1,0],[0.25,1,0],[0.5,1,0],[0.75,1,0],[1,1,0],[0,0.25,0],[0,0.5,0],[0,0.75,0],[1,0.25,0],[1,0.5,0],[1,0.75,0]];outlineConnect=0;fontColor=#232F3E;gradientDirection=north;strokeColor=#ffffff;dashed=0;verticalLabelPosition=bottom;verticalAlign=top;align=center;html=1;fontSize=12;fontStyle=0;aspect=fixed;shape=mxgraph.aws4.resourceIcon;resIcon=mxgraph.aws4.s3;fillColor=#767171;" vertex="1" parent="1">
                    <mxGeometry x="140" y="290" width="40" height="40" as="geometry"/>
                </mxCell>
                <mxCell id="3" value="" style="outlineConnect=0;fontColor=#232F3E;gradientColor=none;strokeColor=none;dashed=0;verticalLabelPosition=bottom;verticalAlign=top;align=center;html=1;fontSize=12;fontStyle=0;aspect=fixed;pointerEvents=1;shape=mxgraph.aws4.logs;fillColor=#767171;" vertex="1" parent="1">
                    <mxGeometry x="332.59999999999997" y="290" width="53.79" height="40" as="geometry"/>
                </mxCell>
                <mxCell id="5" style="edgeStyle=orthogonalEdgeStyle;html=1;exitX=0.5;exitY=1;exitDx=0;exitDy=0;fontColor=#23A8D4;strokeColor=#23A8D4;curved=1;" edge="1" parent="1" source="asYjwT--wiLLLTKxJUm1-8" target="3">
                    <mxGeometry relative="1" as="geometry">
                        <mxPoint x="270" y="250" as="sourcePoint"/>
                        <mxPoint x="165.5" y="300" as="targetPoint"/>
                    </mxGeometry>
                </mxCell>
                <mxCell id="6" value="&lt;font style=&quot;font-size: 12px&quot;&gt;Cloudwatch loggroup&lt;/font&gt;" style="text;html=1;resizable=0;autosize=1;align=center;verticalAlign=middle;points=[];fillColor=none;strokeColor=none;rounded=0;fontSize=12;fontColor=#767171;fontStyle=1" vertex="1" parent="1">
                    <mxGeometry x="305" y="350" width="140" height="20" as="geometry"/>
                </mxCell>
                <mxCell id="7" value="&lt;font style=&quot;font-size: 12px&quot;&gt;S3 bucket&lt;/font&gt;" style="text;html=1;resizable=0;autosize=1;align=center;verticalAlign=middle;points=[];fillColor=none;strokeColor=none;rounded=0;fontSize=12;fontColor=#767171;fontStyle=1" vertex="1" parent="1">
                    <mxGeometry x="125" y="350" width="70" height="20" as="geometry"/>
                </mxCell>
            </root>
        </mxGraphModel>
    </diagram>
</mxfile>